<mxfile host="Electron" modified="2023-11-28T03:48:25.049Z" agent="Mozilla/5.0 (Windows NT 10.0; Win64; x64) AppleWebKit/537.36 (KHTML, like Gecko) draw.io/22.1.2 Chrome/114.0.5735.289 Electron/25.9.4 Safari/537.36" etag="E-BPVYpBftr9RA3tfCI1" version="22.1.2" type="device">
  <diagram id="C5RBs43oDa-KdzZeNtuy" name="Page-1">
    <mxGraphModel dx="1863" dy="606" grid="1" gridSize="10" guides="1" tooltips="1" connect="1" arrows="1" fold="1" page="1" pageScale="1" pageWidth="827" pageHeight="1169" math="0" shadow="0">
      <root>
        <mxCell id="WIyWlLk6GJQsqaUBKTNV-0" />
        <mxCell id="WIyWlLk6GJQsqaUBKTNV-1" parent="WIyWlLk6GJQsqaUBKTNV-0" />
        <mxCell id="Iuauyg0S90bpOyPDbfv3-2" style="edgeStyle=orthogonalEdgeStyle;rounded=0;orthogonalLoop=1;jettySize=auto;html=1;exitX=0.5;exitY=1;exitDx=0;exitDy=0;entryX=0.5;entryY=0;entryDx=0;entryDy=0;" edge="1" parent="WIyWlLk6GJQsqaUBKTNV-1" source="Iuauyg0S90bpOyPDbfv3-0" target="Iuauyg0S90bpOyPDbfv3-1">
          <mxGeometry relative="1" as="geometry" />
        </mxCell>
        <mxCell id="Iuauyg0S90bpOyPDbfv3-0" value="start" style="ellipse;whiteSpace=wrap;html=1;" vertex="1" parent="WIyWlLk6GJQsqaUBKTNV-1">
          <mxGeometry x="354" width="120" height="80" as="geometry" />
        </mxCell>
        <mxCell id="Iuauyg0S90bpOyPDbfv3-3" style="edgeStyle=orthogonalEdgeStyle;rounded=0;orthogonalLoop=1;jettySize=auto;html=1;exitX=0.5;exitY=1;exitDx=0;exitDy=0;" edge="1" parent="WIyWlLk6GJQsqaUBKTNV-1" source="Iuauyg0S90bpOyPDbfv3-1">
          <mxGeometry relative="1" as="geometry">
            <mxPoint x="414" y="260" as="targetPoint" />
          </mxGeometry>
        </mxCell>
        <mxCell id="Iuauyg0S90bpOyPDbfv3-1" value="inputString[100]&lt;br&gt;n = strlen(inputString)&lt;br&gt;maxLenght = 0&lt;br&gt;currnetLenght = 0&lt;br&gt;start = 0&lt;br&gt;currentStart = 0" style="rounded=0;whiteSpace=wrap;html=1;" vertex="1" parent="WIyWlLk6GJQsqaUBKTNV-1">
          <mxGeometry x="354" y="110" width="120" height="110" as="geometry" />
        </mxCell>
        <mxCell id="Iuauyg0S90bpOyPDbfv3-7" style="edgeStyle=orthogonalEdgeStyle;rounded=0;orthogonalLoop=1;jettySize=auto;html=1;exitX=0.5;exitY=1;exitDx=0;exitDy=0;entryX=0.5;entryY=0;entryDx=0;entryDy=0;" edge="1" parent="WIyWlLk6GJQsqaUBKTNV-1" source="Iuauyg0S90bpOyPDbfv3-5" target="Iuauyg0S90bpOyPDbfv3-6">
          <mxGeometry relative="1" as="geometry" />
        </mxCell>
        <mxCell id="Iuauyg0S90bpOyPDbfv3-5" value="nhap chuoi" style="shape=parallelogram;perimeter=parallelogramPerimeter;whiteSpace=wrap;html=1;fixedSize=1;" vertex="1" parent="WIyWlLk6GJQsqaUBKTNV-1">
          <mxGeometry x="354" y="260" width="120" height="60" as="geometry" />
        </mxCell>
        <mxCell id="Iuauyg0S90bpOyPDbfv3-8" style="edgeStyle=orthogonalEdgeStyle;rounded=0;orthogonalLoop=1;jettySize=auto;html=1;exitX=0.5;exitY=1;exitDx=0;exitDy=0;" edge="1" parent="WIyWlLk6GJQsqaUBKTNV-1" source="Iuauyg0S90bpOyPDbfv3-6">
          <mxGeometry relative="1" as="geometry">
            <mxPoint x="414" y="470" as="targetPoint" />
          </mxGeometry>
        </mxCell>
        <mxCell id="Iuauyg0S90bpOyPDbfv3-27" style="edgeStyle=orthogonalEdgeStyle;rounded=0;orthogonalLoop=1;jettySize=auto;html=1;exitX=1;exitY=0.5;exitDx=0;exitDy=0;" edge="1" parent="WIyWlLk6GJQsqaUBKTNV-1" source="Iuauyg0S90bpOyPDbfv3-6">
          <mxGeometry relative="1" as="geometry">
            <mxPoint x="760" y="400" as="targetPoint" />
          </mxGeometry>
        </mxCell>
        <mxCell id="Iuauyg0S90bpOyPDbfv3-6" value="i&amp;lt;n?" style="rhombus;whiteSpace=wrap;html=1;" vertex="1" parent="WIyWlLk6GJQsqaUBKTNV-1">
          <mxGeometry x="374" y="360" width="80" height="80" as="geometry" />
        </mxCell>
        <mxCell id="Iuauyg0S90bpOyPDbfv3-11" style="edgeStyle=orthogonalEdgeStyle;rounded=0;orthogonalLoop=1;jettySize=auto;html=1;exitX=0.5;exitY=1;exitDx=0;exitDy=0;" edge="1" parent="WIyWlLk6GJQsqaUBKTNV-1" source="Iuauyg0S90bpOyPDbfv3-9" target="Iuauyg0S90bpOyPDbfv3-10">
          <mxGeometry relative="1" as="geometry" />
        </mxCell>
        <mxCell id="Iuauyg0S90bpOyPDbfv3-9" value="j=currentStart" style="rounded=0;whiteSpace=wrap;html=1;" vertex="1" parent="WIyWlLk6GJQsqaUBKTNV-1">
          <mxGeometry x="354" y="470" width="120" height="60" as="geometry" />
        </mxCell>
        <mxCell id="Iuauyg0S90bpOyPDbfv3-13" style="edgeStyle=orthogonalEdgeStyle;rounded=0;orthogonalLoop=1;jettySize=auto;html=1;exitX=0.5;exitY=1;exitDx=0;exitDy=0;entryX=0.5;entryY=0;entryDx=0;entryDy=0;" edge="1" parent="WIyWlLk6GJQsqaUBKTNV-1" source="Iuauyg0S90bpOyPDbfv3-10" target="Iuauyg0S90bpOyPDbfv3-12">
          <mxGeometry relative="1" as="geometry" />
        </mxCell>
        <mxCell id="Iuauyg0S90bpOyPDbfv3-30" style="edgeStyle=orthogonalEdgeStyle;rounded=0;orthogonalLoop=1;jettySize=auto;html=1;exitX=0;exitY=0.5;exitDx=0;exitDy=0;entryX=1;entryY=0.5;entryDx=0;entryDy=0;" edge="1" parent="WIyWlLk6GJQsqaUBKTNV-1" source="Iuauyg0S90bpOyPDbfv3-10" target="Iuauyg0S90bpOyPDbfv3-22">
          <mxGeometry relative="1" as="geometry" />
        </mxCell>
        <mxCell id="Iuauyg0S90bpOyPDbfv3-10" value="j&amp;lt;i?" style="rhombus;whiteSpace=wrap;html=1;" vertex="1" parent="WIyWlLk6GJQsqaUBKTNV-1">
          <mxGeometry x="374" y="550" width="80" height="80" as="geometry" />
        </mxCell>
        <mxCell id="Iuauyg0S90bpOyPDbfv3-15" style="edgeStyle=orthogonalEdgeStyle;rounded=0;orthogonalLoop=1;jettySize=auto;html=1;exitX=0.5;exitY=1;exitDx=0;exitDy=0;entryX=0.5;entryY=0;entryDx=0;entryDy=0;" edge="1" parent="WIyWlLk6GJQsqaUBKTNV-1" source="Iuauyg0S90bpOyPDbfv3-12" target="Iuauyg0S90bpOyPDbfv3-14">
          <mxGeometry relative="1" as="geometry" />
        </mxCell>
        <mxCell id="Iuauyg0S90bpOyPDbfv3-12" value="inputString[j] == inputString[i]?" style="rhombus;whiteSpace=wrap;html=1;" vertex="1" parent="WIyWlLk6GJQsqaUBKTNV-1">
          <mxGeometry x="296" y="660" width="236" height="80" as="geometry" />
        </mxCell>
        <mxCell id="Iuauyg0S90bpOyPDbfv3-17" style="edgeStyle=orthogonalEdgeStyle;rounded=0;orthogonalLoop=1;jettySize=auto;html=1;exitX=0.5;exitY=1;exitDx=0;exitDy=0;entryX=0.5;entryY=0;entryDx=0;entryDy=0;" edge="1" parent="WIyWlLk6GJQsqaUBKTNV-1" source="Iuauyg0S90bpOyPDbfv3-14" target="Iuauyg0S90bpOyPDbfv3-16">
          <mxGeometry relative="1" as="geometry" />
        </mxCell>
        <mxCell id="Iuauyg0S90bpOyPDbfv3-14" value="currentStart = j+1&lt;br&gt;currentLenght = i-j-1" style="rounded=0;whiteSpace=wrap;html=1;" vertex="1" parent="WIyWlLk6GJQsqaUBKTNV-1">
          <mxGeometry x="354" y="770" width="120" height="60" as="geometry" />
        </mxCell>
        <mxCell id="Iuauyg0S90bpOyPDbfv3-19" style="edgeStyle=orthogonalEdgeStyle;rounded=0;orthogonalLoop=1;jettySize=auto;html=1;exitX=0.5;exitY=1;exitDx=0;exitDy=0;entryX=0.5;entryY=0;entryDx=0;entryDy=0;" edge="1" parent="WIyWlLk6GJQsqaUBKTNV-1" source="Iuauyg0S90bpOyPDbfv3-16" target="Iuauyg0S90bpOyPDbfv3-18">
          <mxGeometry relative="1" as="geometry" />
        </mxCell>
        <mxCell id="Iuauyg0S90bpOyPDbfv3-16" value="break" style="rounded=0;whiteSpace=wrap;html=1;" vertex="1" parent="WIyWlLk6GJQsqaUBKTNV-1">
          <mxGeometry x="354" y="860" width="120" height="60" as="geometry" />
        </mxCell>
        <mxCell id="Iuauyg0S90bpOyPDbfv3-20" style="edgeStyle=orthogonalEdgeStyle;rounded=0;orthogonalLoop=1;jettySize=auto;html=1;exitX=1;exitY=0.5;exitDx=0;exitDy=0;entryX=1;entryY=0.5;entryDx=0;entryDy=0;" edge="1" parent="WIyWlLk6GJQsqaUBKTNV-1" source="Iuauyg0S90bpOyPDbfv3-18" target="Iuauyg0S90bpOyPDbfv3-10">
          <mxGeometry relative="1" as="geometry">
            <mxPoint x="560" y="980" as="targetPoint" />
            <Array as="points">
              <mxPoint x="560" y="980" />
              <mxPoint x="560" y="590" />
            </Array>
          </mxGeometry>
        </mxCell>
        <mxCell id="Iuauyg0S90bpOyPDbfv3-18" value="j++" style="rounded=0;whiteSpace=wrap;html=1;" vertex="1" parent="WIyWlLk6GJQsqaUBKTNV-1">
          <mxGeometry x="354" y="950" width="120" height="60" as="geometry" />
        </mxCell>
        <mxCell id="Iuauyg0S90bpOyPDbfv3-31" style="edgeStyle=orthogonalEdgeStyle;rounded=0;orthogonalLoop=1;jettySize=auto;html=1;exitX=0;exitY=0.5;exitDx=0;exitDy=0;" edge="1" parent="WIyWlLk6GJQsqaUBKTNV-1" source="Iuauyg0S90bpOyPDbfv3-22">
          <mxGeometry relative="1" as="geometry">
            <mxPoint x="60" y="590" as="targetPoint" />
          </mxGeometry>
        </mxCell>
        <mxCell id="Iuauyg0S90bpOyPDbfv3-22" value="currentLenght++" style="rounded=0;whiteSpace=wrap;html=1;" vertex="1" parent="WIyWlLk6GJQsqaUBKTNV-1">
          <mxGeometry x="140" y="560" width="120" height="60" as="geometry" />
        </mxCell>
        <mxCell id="Iuauyg0S90bpOyPDbfv3-24" value="true" style="text;html=1;align=center;verticalAlign=middle;resizable=0;points=[];autosize=1;strokeColor=none;fillColor=none;" vertex="1" parent="WIyWlLk6GJQsqaUBKTNV-1">
          <mxGeometry x="410" y="628" width="40" height="30" as="geometry" />
        </mxCell>
        <mxCell id="Iuauyg0S90bpOyPDbfv3-26" value="true" style="text;html=1;align=center;verticalAlign=middle;resizable=0;points=[];autosize=1;strokeColor=none;fillColor=none;" vertex="1" parent="WIyWlLk6GJQsqaUBKTNV-1">
          <mxGeometry x="410" y="428" width="40" height="30" as="geometry" />
        </mxCell>
        <mxCell id="Iuauyg0S90bpOyPDbfv3-28" value="false" style="text;html=1;align=center;verticalAlign=middle;resizable=0;points=[];autosize=1;strokeColor=none;fillColor=none;" vertex="1" parent="WIyWlLk6GJQsqaUBKTNV-1">
          <mxGeometry x="495" y="368" width="50" height="30" as="geometry" />
        </mxCell>
        <mxCell id="Iuauyg0S90bpOyPDbfv3-34" style="edgeStyle=orthogonalEdgeStyle;rounded=0;orthogonalLoop=1;jettySize=auto;html=1;exitX=0.5;exitY=1;exitDx=0;exitDy=0;entryX=0.5;entryY=0;entryDx=0;entryDy=0;" edge="1" parent="WIyWlLk6GJQsqaUBKTNV-1" source="Iuauyg0S90bpOyPDbfv3-32" target="Iuauyg0S90bpOyPDbfv3-33">
          <mxGeometry relative="1" as="geometry" />
        </mxCell>
        <mxCell id="Iuauyg0S90bpOyPDbfv3-32" value="currentLenght&amp;gt;maxLenght?&lt;br&gt;" style="rhombus;whiteSpace=wrap;html=1;" vertex="1" parent="WIyWlLk6GJQsqaUBKTNV-1">
          <mxGeometry x="-180" y="550" width="240" height="80" as="geometry" />
        </mxCell>
        <mxCell id="Iuauyg0S90bpOyPDbfv3-36" style="edgeStyle=orthogonalEdgeStyle;rounded=0;orthogonalLoop=1;jettySize=auto;html=1;exitX=0;exitY=0.5;exitDx=0;exitDy=0;" edge="1" parent="WIyWlLk6GJQsqaUBKTNV-1" source="Iuauyg0S90bpOyPDbfv3-33">
          <mxGeometry relative="1" as="geometry">
            <mxPoint x="-180" y="690" as="targetPoint" />
          </mxGeometry>
        </mxCell>
        <mxCell id="Iuauyg0S90bpOyPDbfv3-33" value="maxLenght=currentLenght&lt;br&gt;start = currentStart" style="rounded=0;whiteSpace=wrap;html=1;" vertex="1" parent="WIyWlLk6GJQsqaUBKTNV-1">
          <mxGeometry x="-120" y="660" width="120" height="60" as="geometry" />
        </mxCell>
        <mxCell id="Iuauyg0S90bpOyPDbfv3-39" style="edgeStyle=orthogonalEdgeStyle;rounded=0;orthogonalLoop=1;jettySize=auto;html=1;exitX=0.5;exitY=0;exitDx=0;exitDy=0;entryX=0;entryY=0.5;entryDx=0;entryDy=0;" edge="1" parent="WIyWlLk6GJQsqaUBKTNV-1" source="Iuauyg0S90bpOyPDbfv3-37" target="Iuauyg0S90bpOyPDbfv3-6">
          <mxGeometry relative="1" as="geometry" />
        </mxCell>
        <mxCell id="Iuauyg0S90bpOyPDbfv3-37" value="i++" style="rounded=0;whiteSpace=wrap;html=1;" vertex="1" parent="WIyWlLk6GJQsqaUBKTNV-1">
          <mxGeometry x="-300" y="660" width="120" height="60" as="geometry" />
        </mxCell>
        <mxCell id="Iuauyg0S90bpOyPDbfv3-40" value="false" style="text;html=1;align=center;verticalAlign=middle;resizable=0;points=[];autosize=1;strokeColor=none;fillColor=none;" vertex="1" parent="WIyWlLk6GJQsqaUBKTNV-1">
          <mxGeometry x="285" y="558" width="50" height="30" as="geometry" />
        </mxCell>
        <mxCell id="Iuauyg0S90bpOyPDbfv3-45" style="edgeStyle=orthogonalEdgeStyle;rounded=0;orthogonalLoop=1;jettySize=auto;html=1;exitX=0.5;exitY=1;exitDx=0;exitDy=0;" edge="1" parent="WIyWlLk6GJQsqaUBKTNV-1" source="Iuauyg0S90bpOyPDbfv3-41">
          <mxGeometry relative="1" as="geometry">
            <mxPoint x="810" y="520" as="targetPoint" />
          </mxGeometry>
        </mxCell>
        <mxCell id="Iuauyg0S90bpOyPDbfv3-41" value="maxLenght(so luong)" style="shape=parallelogram;perimeter=parallelogramPerimeter;whiteSpace=wrap;html=1;fixedSize=1;" vertex="1" parent="WIyWlLk6GJQsqaUBKTNV-1">
          <mxGeometry x="750" y="370" width="120" height="60" as="geometry" />
        </mxCell>
        <mxCell id="Iuauyg0S90bpOyPDbfv3-48" style="edgeStyle=orthogonalEdgeStyle;rounded=0;orthogonalLoop=1;jettySize=auto;html=1;exitX=0.5;exitY=1;exitDx=0;exitDy=0;entryX=0.5;entryY=0;entryDx=0;entryDy=0;" edge="1" parent="WIyWlLk6GJQsqaUBKTNV-1" source="Iuauyg0S90bpOyPDbfv3-46" target="Iuauyg0S90bpOyPDbfv3-47">
          <mxGeometry relative="1" as="geometry" />
        </mxCell>
        <mxCell id="Iuauyg0S90bpOyPDbfv3-46" value="i = start" style="rounded=0;whiteSpace=wrap;html=1;" vertex="1" parent="WIyWlLk6GJQsqaUBKTNV-1">
          <mxGeometry x="750" y="520" width="120" height="60" as="geometry" />
        </mxCell>
        <mxCell id="Iuauyg0S90bpOyPDbfv3-49" style="edgeStyle=orthogonalEdgeStyle;rounded=0;orthogonalLoop=1;jettySize=auto;html=1;exitX=0.5;exitY=1;exitDx=0;exitDy=0;" edge="1" parent="WIyWlLk6GJQsqaUBKTNV-1" source="Iuauyg0S90bpOyPDbfv3-47">
          <mxGeometry relative="1" as="geometry">
            <mxPoint x="810" y="730" as="targetPoint" />
          </mxGeometry>
        </mxCell>
        <mxCell id="Iuauyg0S90bpOyPDbfv3-57" style="edgeStyle=orthogonalEdgeStyle;rounded=0;orthogonalLoop=1;jettySize=auto;html=1;exitX=1;exitY=0.5;exitDx=0;exitDy=0;" edge="1" parent="WIyWlLk6GJQsqaUBKTNV-1" source="Iuauyg0S90bpOyPDbfv3-47">
          <mxGeometry relative="1" as="geometry">
            <mxPoint x="1050" y="650" as="targetPoint" />
          </mxGeometry>
        </mxCell>
        <mxCell id="Iuauyg0S90bpOyPDbfv3-47" value="i&amp;lt;maxLenght?" style="rhombus;whiteSpace=wrap;html=1;" vertex="1" parent="WIyWlLk6GJQsqaUBKTNV-1">
          <mxGeometry x="740" y="610" width="140" height="80" as="geometry" />
        </mxCell>
        <mxCell id="Iuauyg0S90bpOyPDbfv3-53" style="edgeStyle=orthogonalEdgeStyle;rounded=0;orthogonalLoop=1;jettySize=auto;html=1;exitX=0.5;exitY=1;exitDx=0;exitDy=0;" edge="1" parent="WIyWlLk6GJQsqaUBKTNV-1" source="Iuauyg0S90bpOyPDbfv3-50">
          <mxGeometry relative="1" as="geometry">
            <mxPoint x="810" y="830" as="targetPoint" />
          </mxGeometry>
        </mxCell>
        <mxCell id="Iuauyg0S90bpOyPDbfv3-50" value="inputString[i]" style="shape=parallelogram;perimeter=parallelogramPerimeter;whiteSpace=wrap;html=1;fixedSize=1;" vertex="1" parent="WIyWlLk6GJQsqaUBKTNV-1">
          <mxGeometry x="750" y="730" width="120" height="70" as="geometry" />
        </mxCell>
        <mxCell id="Iuauyg0S90bpOyPDbfv3-56" style="edgeStyle=orthogonalEdgeStyle;rounded=0;orthogonalLoop=1;jettySize=auto;html=1;exitX=0;exitY=0.5;exitDx=0;exitDy=0;entryX=0;entryY=0.5;entryDx=0;entryDy=0;" edge="1" parent="WIyWlLk6GJQsqaUBKTNV-1" source="Iuauyg0S90bpOyPDbfv3-54" target="Iuauyg0S90bpOyPDbfv3-47">
          <mxGeometry relative="1" as="geometry" />
        </mxCell>
        <mxCell id="Iuauyg0S90bpOyPDbfv3-54" value="i++" style="rounded=0;whiteSpace=wrap;html=1;" vertex="1" parent="WIyWlLk6GJQsqaUBKTNV-1">
          <mxGeometry x="750" y="830" width="120" height="60" as="geometry" />
        </mxCell>
        <mxCell id="Iuauyg0S90bpOyPDbfv3-58" value="true" style="text;html=1;align=center;verticalAlign=middle;resizable=0;points=[];autosize=1;strokeColor=none;fillColor=none;" vertex="1" parent="WIyWlLk6GJQsqaUBKTNV-1">
          <mxGeometry x="800" y="688" width="40" height="30" as="geometry" />
        </mxCell>
        <mxCell id="Iuauyg0S90bpOyPDbfv3-59" value="false" style="text;html=1;align=center;verticalAlign=middle;resizable=0;points=[];autosize=1;strokeColor=none;fillColor=none;" vertex="1" parent="WIyWlLk6GJQsqaUBKTNV-1">
          <mxGeometry x="905" y="618" width="50" height="30" as="geometry" />
        </mxCell>
        <mxCell id="Iuauyg0S90bpOyPDbfv3-60" value="chuoi ki tu phan biet co do dai lon nhat la" style="shape=parallelogram;perimeter=parallelogramPerimeter;whiteSpace=wrap;html=1;fixedSize=1;" vertex="1" parent="WIyWlLk6GJQsqaUBKTNV-1">
          <mxGeometry x="1040" y="628" width="120" height="60" as="geometry" />
        </mxCell>
        <mxCell id="Iuauyg0S90bpOyPDbfv3-61" value="end" style="ellipse;whiteSpace=wrap;html=1;" vertex="1" parent="WIyWlLk6GJQsqaUBKTNV-1">
          <mxGeometry x="1220" y="624" width="120" height="80" as="geometry" />
        </mxCell>
        <mxCell id="Iuauyg0S90bpOyPDbfv3-62" style="edgeStyle=orthogonalEdgeStyle;rounded=0;orthogonalLoop=1;jettySize=auto;html=1;exitX=1;exitY=0.5;exitDx=0;exitDy=0;entryX=0.002;entryY=0.417;entryDx=0;entryDy=0;entryPerimeter=0;" edge="1" parent="WIyWlLk6GJQsqaUBKTNV-1" source="Iuauyg0S90bpOyPDbfv3-60" target="Iuauyg0S90bpOyPDbfv3-61">
          <mxGeometry relative="1" as="geometry" />
        </mxCell>
      </root>
    </mxGraphModel>
  </diagram>
</mxfile>
